<?xml version="1.0" encoding="iso-8859-1"?>
<!-- Generator: Adobe Illustrator 19.0.0, SVG Export Plug-In . SVG Version: 6.00 Build 0)  -->
<svg version="1.1" id="Capa_1" xmlns="http://www.w3.org/2000/svg" xmlns:xlink="http://www.w3.org/1999/xlink" x="0px" y="0px"
	 viewBox="0 0 512 512" style="enable-background:new 0 0 512 512;" xml:space="preserve">
<g>
	<g>
		<path d="M292.455,24.653h-88.779c-8.817,0-16.731,3.922-22.077,10.111c-4.082-3.3-9.258-5.266-14.895-5.266h-29.77
			c-11.766,0-21.335,9.569-21.335,21.335v106.713c0,11.766,9.569,21.345,21.335,21.345h29.77c6.359,0,12.127-2.508,16.4-6.58
			c5.276,5.246,12.548,8.486,20.572,8.486h18.496l44.986,54.294c6.319,7.683,15.577,11.736,24.855,11.736
			c26.436,0,40.654-31.021,23.993-51.275l-12.277-14.895c23.361-1.856,41.807-21.465,41.807-45.297V77.733
			C345.536,48.465,321.724,24.653,292.455,24.653z M174.438,155.108c0,4.263-3.471,7.733-7.733,7.733h-29.77
			c-2.909,0-5.286-2.377-5.286-5.296V50.832c0-2.919,2.377-5.286,5.286-5.286h29.77c4.263,0,7.733,3.46,7.733,7.723
			C174.438,85.253,174.438,122.507,174.438,155.108z M329.487,135.358c0,16.209-13.19,29.389-29.389,29.389
			c-5.537,0-10.472,3.099-12.869,8.094c-2.699,5.623-1.172,12.229,1.795,15.196l14.594,17.714c2.698,3.28,3.912,7.603,3.33,11.866
			c-1.849,13.437-18.667,17.892-27.423,7.252l-45.488-54.916c-2.728-3.31-6.74-5.206-11.023-5.206h-19.339
			c-7.272,0-13.19-5.918-13.19-13.19V53.891c0-7.272,5.918-13.19,13.19-13.19h88.779c20.422,0,37.032,16.61,37.032,37.032V135.358z"
			/>
	</g>
</g>
<g>
	<g>
		<path d="M238.893,259.925h-75.569c-2.979,0-5.677,1.745-6.881,4.464l-40.834,92.059c-4.032,9.077-11.926,10.06-15.136,10.06
			c-8.315,0-17.162-5.928-17.162-16.911v-97.656c0-2.758-1.515-5.306-3.942-6.62c-39.68-21.455-64.325-62.61-64.325-107.385
			c0-54.706,36.932-103.092,89.812-117.646c4.012-1.103,6.359-5.246,5.256-9.248c-1.103-4.012-5.246-6.359-9.248-5.256
			C41.476,22.135,0,76.48,0,137.936c0,48.808,26.039,93.764,68.267,118.408v93.252c0,34.104,47.022,44.679,61.095,12.949
			l38.848-87.575h70.684c4.153,0,7.523-3.37,7.523-7.523C246.416,263.285,243.046,259.925,238.893,259.925z"/>
	</g>
</g>
<g>
	<g>
		<path d="M414.244,241.058c28.727-25.136,46.892-62.048,46.892-103.122c0-75.559-61.466-137.025-137.025-137.025
			C126.282,0.942,137.084,0.838,132.27,0.991c-4.153,0.14-7.402,3.631-7.262,7.784c0.15,4.153,3.641,7.392,7.784,7.252
			c3.627-0.129-6.554-0.049,191.319-0.07c67.264,0,121.979,54.726,121.979,121.979c0,40.593-19.93,76.612-50.513,98.799
			c-35.828-5.727-71.829,3.174-100.524,23.19h-26.069c-4.153,0-7.523,3.36-7.523,7.523c0,4.153,3.37,7.523,7.523,7.523h7.994
			c-8.927,8.807-16.721,18.907-23.05,30.111c-37.73,66.618-13.745,150.756,52.128,188.019c3.621,2.046,8.205,0.772,10.251-2.839
			c2.046-3.621,0.772-8.205-2.839-10.261c-38.497-21.776-62.409-62.82-62.409-107.094c0-67.232,54.357-121.73,121.006-122.812
			c69.298-1.02,124.888,55.031,124.888,123.042c0,81.255-78.718,141.002-157.427,117.907c-3.992-1.174-8.175,1.113-9.338,5.105
			c-1.174,3.982,1.113,8.165,5.105,9.328C423.57,531.347,512,464.551,512,373.138C512,313.155,472.958,258.973,414.244,241.058z"/>
	</g>
</g>
<g>
	<g>
		<circle cx="345.436" cy="318.404" r="12.486"/>
	</g>
</g>
<g>
	<g>
		<circle cx="402.569" cy="318.404" r="12.486"/>
	</g>
</g>
<g>
	<g>
		<path d="M374.004,338.273c-41.251,0-74.811,33.56-74.811,74.81c0,4.155,3.367,7.523,7.523,7.523s7.523-3.368,7.523-7.523
			c0-32.955,26.81-59.765,59.766-59.765s59.766,26.81,59.766,59.765c0,4.155,3.367,7.523,7.523,7.523s7.523-3.368,7.523-7.523
			C448.816,371.833,415.255,338.273,374.004,338.273z"/>
	</g>
</g>
<g>
</g>
<g>
</g>
<g>
</g>
<g>
</g>
<g>
</g>
<g>
</g>
<g>
</g>
<g>
</g>
<g>
</g>
<g>
</g>
<g>
</g>
<g>
</g>
<g>
</g>
<g>
</g>
<g>
</g>
</svg>
